solid riftVicon18b
facet normal 1.0 0.0 0.0
outer loop
vertex -16.6620495253281 7.6974515470549 0.0
vertex -16.6620495253281 -11.3025484529451 5.0
vertex -16.6620495253281 -11.3025484529451 0.0
endloop
endfacet
facet normal 1.0 0.0 0.0
outer loop
vertex -16.6620495253281 -11.3025484529451 5.0
vertex -16.6620495253281 7.6974515470549 0.0
vertex -16.6620495253281 7.6974515470549 5.0
endloop
endfacet
facet normal -1.0 0.0 0.0
outer loop
vertex -88.5601401195058 -9.30254845294511 18.4886207580566
vertex -88.5601401195058 -11.3025484529451 0.0
vertex -88.5601401195058 -11.3025484529451 18.4886207580566
endloop
endfacet
facet normal -1.0 0.0 0.0
outer loop
vertex -88.5601401195058 -11.3025484529451 0.0
vertex -88.5601401195058 -9.30254845294511 18.4886207580566
vertex -88.5601401195058 7.69745154705488 0.0
endloop
endfacet
facet normal -1.0 0.0 0.0
outer loop
vertex -88.5601401195058 7.69745154705488 0.0
vertex -88.5601401195058 -9.30254845294511 18.4886207580566
vertex -88.5601401195058 5.69745154705488 5.00009894371033
endloop
endfacet
facet normal -1.0 0.0 0.0
outer loop
vertex -88.5601401195058 5.69745154705488 5.00009894371033
vertex -88.5601401195058 -9.30254845294511 18.4886207580566
vertex -88.5601401195058 0.697451547054885 18.4886207580566
endloop
endfacet
facet normal -1.0 0.0 0.0
outer loop
vertex -88.5601401195058 7.69745154705488 0.0
vertex -88.5601401195058 5.69745154705488 5.00009894371033
vertex -88.5601401195058 7.69745154705488 5.00009894371033
endloop
endfacet
facet normal -0.000520824783769792 0.000920473921228845 0.999999440734496
outer loop
vertex -84.1518251195058 -9.3025484529451 18.4886207580566
vertex -85.6101501195058 0.697451547054885 18.4696063995361
vertex -88.5601401195058 -9.30254845294511 18.4886207580566
endloop
endfacet
facet normal -0.0028960642064869 0.00033441486221379 0.999995750480377
outer loop
vertex -85.6101501195058 0.697451547054885 18.4696063995361
vertex -84.1518251195058 -9.3025484529451 18.4886207580566
vertex -84.1518251195058 -4.3025484529451 18.4886207580566
endloop
endfacet
facet normal 0.0 1.0 0.0
outer loop
vertex -85.6101501195058 0.697451547054885 18.4696063995361
vertex -84.1518251195058 0.697451547054885 17.4886207580566
vertex -85.6101501195058 0.697451547054885 17.4886207580566
endloop
endfacet
facet normal 0.0 1.0 0.0
outer loop
vertex -84.1518251195058 0.697451547054885 17.4886207580566
vertex -85.6101501195058 0.697451547054885 18.4696063995361
vertex -84.1518251195058 0.697451547054885 18.4886207580566
endloop
endfacet
facet normal 1.0 0.0 0.0
outer loop
vertex -85.6101501195058 5.69745154705488 5.0
vertex -85.6101501195058 -11.3025484529451 17.4886207580566
vertex -85.6101501195058 -11.3025484529451 5.0
endloop
endfacet
facet normal 1.0 0.0 0.0
outer loop
vertex -85.6101501195058 -11.3025484529451 17.4886207580566
vertex -85.6101501195058 5.69745154705488 5.0
vertex -85.6101501195058 0.697451547054885 17.4886207580566
endloop
endfacet
facet normal 1.0 0.0 0.0
outer loop
vertex -85.6101501195058 0.697451547054885 17.4886207580566
vertex -85.6101501195058 5.69745154705488 5.0
vertex -85.6101501195058 0.697451547054885 18.4696063995361
endloop
endfacet
facet normal 0.0 0.0 -1.0
outer loop
vertex -84.1518251195058 0.697451547054885 17.4886207580566
vertex -85.6101501195058 -11.3025484529451 17.4886207580566
vertex -85.6101501195058 0.697451547054885 17.4886207580566
endloop
endfacet
facet normal 0.0 0.0 -1.0
outer loop
vertex -85.6101501195058 -11.3025484529451 17.4886207580566
vertex -84.1518251195058 0.697451547054885 17.4886207580566
vertex -84.1518251195058 -11.3025484529451 17.4886207580566
endloop
endfacet
facet normal 0.0 0.0 1.0
outer loop
vertex -16.6620495253281 -11.3025484529451 5.0
vertex -85.6101501195058 5.69745154705488 5.0
vertex -85.6101501195058 -11.3025484529451 5.0
endloop
endfacet
facet normal 0.0 0.0 1.0
outer loop
vertex -85.6101501195058 5.69745154705488 5.0
vertex -16.6620495253281 -11.3025484529451 5.0
vertex -85.6101501195058 7.69745154705488 5.0
endloop
endfacet
facet normal 0.0 0.0 1.0
outer loop
vertex -85.6101501195058 7.69745154705488 5.0
vertex -16.6620495253281 -11.3025484529451 5.0
vertex -16.6620495253281 7.6974515470549 5.0
endloop
endfacet
facet normal 0.0 0.0 -1.0
outer loop
vertex -16.6620495253281 7.6974515470549 0.0
vertex -88.5601401195058 -11.3025484529451 0.0
vertex -88.5601401195058 7.69745154705488 0.0
endloop
endfacet
facet normal 0.0 0.0 -1.0
outer loop
vertex -88.5601401195058 -11.3025484529451 0.0
vertex -16.6620495253281 7.6974515470549 0.0
vertex -16.6620495253281 -11.3025484529451 0.0
endloop
endfacet
facet normal 1.0 0.0 0.0
outer loop
vertex -84.1518251195058 0.697451547054885 17.4886207580566
vertex -84.1518251195058 -11.3025484529451 18.4886207580566
vertex -84.1518251195058 -11.3025484529451 17.4886207580566
endloop
endfacet
facet normal 1.0 0.0 0.0
outer loop
vertex -84.1518251195058 -11.3025484529451 18.4886207580566
vertex -84.1518251195058 0.697451547054885 17.4886207580566
vertex -84.1518251195058 -9.3025484529451 18.4886207580566
endloop
endfacet
facet normal 1.0 0.0 0.0
outer loop
vertex -84.1518251195058 -9.3025484529451 18.4886207580566
vertex -84.1518251195058 0.697451547054885 17.4886207580566
vertex -84.1518251195058 -4.3025484529451 18.4886207580566
endloop
endfacet
facet normal 1.0 0.0 0.0
outer loop
vertex -84.1518251195058 -4.3025484529451 18.4886207580566
vertex -84.1518251195058 0.697451547054885 17.4886207580566
vertex -84.1518251195058 0.697451547054885 18.4886207580566
endloop
endfacet
facet normal 0.00195463667053411 0.937512122464523 0.347947121884277
outer loop
vertex -88.5601401195058 0.697451547054885 18.4886207580566
vertex -85.6101501195058 0.697451547054885 18.4696063995361
vertex -85.6101501195058 5.69745154705488 5.0
endloop
endfacet
facet normal -0.0130373836315762 6.21614137915172e-019 0.999915009702346
outer loop
vertex -84.1518251195058 0.697451547054885 18.4886207580566
vertex -85.6101501195058 0.697451547054885 18.4696063995361
vertex -84.1518251195058 -4.3025484529451 18.4886207580566
endloop
endfacet
facet normal 0.00195463667053411 0.937512122464523 0.347947121884277
outer loop
vertex -88.5601401195058 0.697451547054885 18.4886207580566
vertex -85.6101501195058 5.69745154705488 5.0
vertex -88.5601401195058 5.69745154705488 5.00009894371033
endloop
endfacet
facet normal -0.0028960642064869 0.00033441486221379 0.999995750480377
outer loop
vertex -85.6101501195058 0.697451547054885 18.4696063995361
vertex -88.5601401195058 0.697451547054885 18.4886207580566
vertex -88.5601401195058 -9.30254845294511 18.4886207580566
endloop
endfacet
facet normal -1.0 0.0 0.0
outer loop
vertex 85.4892661293878 5.69745154705493 5.0
vertex 85.4892661293878 0.697451547054927 17.4886207580566
vertex 85.4892661293878 0.697451547054927 18.4886207580566
endloop
endfacet
facet normal -1.0 0.0 0.0
outer loop
vertex 85.4892661293878 0.697451547054927 17.4886207580566
vertex 85.4892661293878 -11.3025484529451 5.0
vertex 85.4892661293878 -11.3025484529451 17.4886207580566
endloop
endfacet
facet normal -1.0 0.0 0.0
outer loop
vertex 85.4892661293878 -11.3025484529451 5.0
vertex 85.4892661293878 0.697451547054927 17.4886207580566
vertex 85.4892661293878 5.69745154705493 5.0
endloop
endfacet
facet normal -1.0 0.0 0.0
outer loop
vertex 16.3379504746718 7.69745154705491 5.0
vertex 16.3379504746718 -11.3025484529451 0.0
vertex 16.3379504746718 -11.3025484529451 5.0
endloop
endfacet
facet normal -1.0 0.0 0.0
outer loop
vertex 16.3379504746718 -11.3025484529451 0.0
vertex 16.3379504746718 7.69745154705491 5.0
vertex 16.3379504746718 7.69745154705491 0.0
endloop
endfacet
facet normal -1.0 0.0 0.0
outer loop
vertex 84.0309411293878 -11.3025484529451 18.4886207580566
vertex 84.0309411293878 0.697451547054927 17.4886207580566
vertex 84.0309411293878 -11.3025484529451 17.4886207580566
endloop
endfacet
facet normal -1.0 0.0 0.0
outer loop
vertex 84.0309411293878 0.697451547054927 17.4886207580566
vertex 84.0309411293878 -11.3025484529451 18.4886207580566
vertex 84.0309411293878 0.697451547054927 18.4886207580566
endloop
endfacet
facet normal 0.0 1.0 0.0
outer loop
vertex 84.0309411293878 0.697451547054927 18.4886207580566
vertex 85.4892661293878 0.697451547054927 17.4886207580566
vertex 84.0309411293878 0.697451547054927 17.4886207580566
endloop
endfacet
facet normal 0.0 1.0 0.0
outer loop
vertex 85.4892661293878 0.697451547054927 17.4886207580566
vertex 84.0309411293878 0.697451547054927 18.4886207580566
vertex 85.4892661293878 0.697451547054927 18.4886207580566
endloop
endfacet
facet normal 1.93370235204627e-015 -4.89158438574812e-033 -1.0
outer loop
vertex 85.4892661293878 0.697451547054927 17.4886207580566
vertex 84.0309411293878 -11.3025484529451 17.4886207580566
vertex 84.0309411293878 0.697451547054927 17.4886207580566
endloop
endfacet
facet normal 1.93370235204627e-015 -4.89158438574812e-033 -1.0
outer loop
vertex 84.0309411293878 -11.3025484529451 17.4886207580566
vertex 85.4892661293878 0.697451547054927 17.4886207580566
vertex 85.4892661293878 -11.3025484529451 17.4886207580566
endloop
endfacet
facet normal 0.0 0.0 -1.0
outer loop
vertex 88.4392561293878 7.69745154705493 0.0
vertex 16.3379504746718 -11.3025484529451 0.0
vertex 16.3379504746718 7.69745154705491 0.0
endloop
endfacet
facet normal 0.0 0.0 -1.0
outer loop
vertex 16.3379504746718 -11.3025484529451 0.0
vertex 88.4392561293878 7.69745154705493 0.0
vertex 88.4392561293878 -11.3025484529451 0.0
endloop
endfacet
facet normal 7.52804696996353e-011 2.31357779256538e-010 1.0
outer loop
vertex 85.4892661293878 -11.3025484529451 5.0
vertex 16.3379504746718 7.69745154705491 5.0
vertex 16.3379504746718 -11.3025484529451 5.0
endloop
endfacet
facet normal 7.52804696996353e-011 2.31357779256538e-010 1.0
outer loop
vertex 16.3379504746718 7.69745154705491 5.0
vertex 85.4892661293878 -11.3025484529451 5.0
vertex 85.4892661293878 7.69745154705493 5.0
endloop
endfacet
facet normal 7.52804696996353e-011 2.31357779256538e-010 1.0
outer loop
vertex 85.4892661293878 7.69745154705493 5.0
vertex 85.4892661293878 -11.3025484529451 5.0
vertex 85.4892661293878 5.69745154705493 5.0
endloop
endfacet
facet normal 2.37884285366168e-016 -1.0 -5.29945261424437e-017
outer loop
vertex 16.3379504746718 -11.3025484529451 5.0
vertex 16.3379504746718 -11.3025484529451 0.0
vertex 85.4892661293878 -11.3025484529451 5.0
endloop
endfacet
facet normal 2.37884285366168e-016 -1.0 -5.29945261424437e-017
outer loop
vertex 88.4392561293878 -11.3025484529451 0.0
vertex 85.4892661293878 -11.3025484529451 5.0
vertex 16.3379504746718 -11.3025484529451 0.0
endloop
endfacet
facet normal 2.37884285366168e-016 -1.0 -5.29945261424437e-017
outer loop
vertex 85.4892661293878 -11.3025484529451 5.0
vertex 88.4392561293878 -11.3025484529451 0.0
vertex 88.4392561293878 -11.3025484529451 18.4886207580566
endloop
endfacet
facet normal 2.37884285366168e-016 -1.0 -5.29945261424437e-017
outer loop
vertex 85.4892661293878 -11.3025484529451 5.0
vertex 88.4392561293878 -11.3025484529451 18.4886207580566
vertex 85.4892661293878 -11.3025484529451 17.4886207580566
endloop
endfacet
facet normal 2.37884285366168e-016 -1.0 -5.29945261424437e-017
outer loop
vertex 85.4892661293878 -11.3025484529451 17.4886207580566
vertex 84.0309411293878 -11.3025484529451 18.4886207580566
vertex 84.0309411293878 -11.3025484529451 17.4886207580566
endloop
endfacet
facet normal 2.37884285366168e-016 -1.0 -5.29945261424437e-017
outer loop
vertex 84.0309411293878 -11.3025484529451 18.4886207580566
vertex 85.4892661293878 -11.3025484529451 17.4886207580566
vertex 88.4392561293878 -11.3025484529451 18.4886207580566
endloop
endfacet
facet normal 0.999999999982246 4.46229890830883e-006 3.94921110652236e-006
outer loop
vertex 88.4392561293878 7.69745154705493 0.0
vertex 88.4392561293878 -11.3025484529451 18.4886207580566
vertex 88.4392561293878 -11.3025484529451 0.0
endloop
endfacet
facet normal 0.999999999982246 4.46229890830883e-006 3.94921110652236e-006
outer loop
vertex 88.4392561293878 -11.3025484529451 18.4886207580566
vertex 88.4392561293878 7.69745154705493 0.0
vertex 88.4392561293878 5.69745154705493 5.0001106262207
endloop
endfacet
facet normal 0.999999999982246 4.46229890830883e-006 3.94921110652236e-006
outer loop
vertex 88.4392561293878 -11.3025484529451 18.4886207580566
vertex 88.4392561293878 5.69745154705493 5.0001106262207
vertex 88.4392561293878 0.697451547054929 18.4886207580566
endloop
endfacet
facet normal 0.999999999982246 4.46229890830883e-006 3.94921110652236e-006
outer loop
vertex 88.4392561293878 5.69745154705493 5.0001106262207
vertex 88.4392561293878 7.69745154705493 0.0
vertex 88.4392561293878 7.69745154705493 5.0001106262207
endloop
endfacet
facet normal 0.0 0.0 1.0
outer loop
vertex 88.4392561293878 -11.3025484529451 18.4886207580566
vertex 84.0309411293878 0.697451547054927 18.4886207580566
vertex 84.0309411293878 -11.3025484529451 18.4886207580566
endloop
endfacet
facet normal 0.0 0.0 1.0
outer loop
vertex 84.0309411293878 0.697451547054927 18.4886207580566
vertex 88.4392561293878 -11.3025484529451 18.4886207580566
vertex 85.4892661293878 0.697451547054927 18.4886207580566
endloop
endfacet
facet normal 0.0 0.0 1.0
outer loop
vertex 85.4892661293878 0.697451547054927 18.4886207580566
vertex 88.4392561293878 -11.3025484529451 18.4886207580566
vertex 88.4392561293878 0.697451547054929 18.4886207580566
endloop
endfacet
facet normal -6.22339739681527e-006 0.937652836538156 0.347573241336584
outer loop
vertex 85.4892661293878 0.697451547054927 18.4886207580566
vertex 88.4392561293878 5.69745154705493 5.0001106262207
vertex 85.4892661293878 5.69745154705493 5.0
endloop
endfacet
facet normal -6.22339739681527e-006 0.937652836538156 0.347573241336584
outer loop
vertex 88.4392561293878 5.69745154705493 5.0001106262207
vertex 85.4892661293878 0.697451547054927 18.4886207580566
vertex 88.4392561293878 0.697451547054929 18.4886207580566
endloop
endfacet
facet normal -2.60988748066879e-016 1.0 3.56712136752289e-017
outer loop
vertex -16.6620495253281 7.6974515470549 5.0
vertex -16.6620495253281 7.6974515470549 0.0
vertex -85.6101501195058 7.69745154705488 5.0
endloop
endfacet
facet normal -2.60988748066879e-016 1.0 3.56712136752289e-017
outer loop
vertex -88.5601401195058 7.69745154705488 5.00009894371033
vertex -16.6620495253281 7.6974515470549 0.0
vertex -88.5601401195058 7.69745154705488 0.0
endloop
endfacet
facet normal -2.60988748066879e-016 1.0 3.56712136752289e-017
outer loop
vertex -16.6620495253281 7.6974515470549 0.0
vertex -88.5601401195058 7.69745154705488 5.00009894371033
vertex -85.6101501195058 7.69745154705488 5.0
endloop
endfacet
facet normal 3.35403544659156e-005 -3.56624600000429e-017 0.999999999437522
outer loop
vertex -85.6101501195058 5.69745154705488 5.0
vertex -88.5601401195058 7.69745154705488 5.00009894371033
vertex -88.5601401195058 5.69745154705488 5.00009894371033
endloop
endfacet
facet normal 3.35403544659156e-005 -3.56624600000429e-017 0.999999999437522
outer loop
vertex -88.5601401195058 7.69745154705488 5.00009894371033
vertex -85.6101501195058 5.69745154705488 5.0
vertex -85.6101501195058 7.69745154705488 5.0
endloop
endfacet
facet normal 2.63240203034736e-016 -1.0 3.39933411322089e-017
outer loop
vertex -84.1518251195058 -11.3025484529451 18.4886207580566
vertex -85.6101501195058 -11.3025484529451 17.4886207580566
vertex -84.1518251195058 -11.3025484529451 17.4886207580566
endloop
endfacet
facet normal 2.63240203034736e-016 -1.0 3.39933411322089e-017
outer loop
vertex -16.6620495253281 -11.3025484529451 5.0
vertex -88.5601401195058 -11.3025484529451 0.0
vertex -16.6620495253281 -11.3025484529451 0.0
endloop
endfacet
facet normal 2.63240203034736e-016 -1.0 3.39933411322089e-017
outer loop
vertex -88.5601401195058 -11.3025484529451 0.0
vertex -16.6620495253281 -11.3025484529451 5.0
vertex -85.6101501195058 -11.3025484529451 5.0
endloop
endfacet
facet normal 2.63240203034736e-016 -1.0 3.39933411322089e-017
outer loop
vertex -88.5601401195058 -11.3025484529451 0.0
vertex -85.6101501195058 -11.3025484529451 5.0
vertex -88.5601401195058 -11.3025484529451 18.4886207580566
endloop
endfacet
facet normal 2.63240203034736e-016 -1.0 3.39933411322089e-017
outer loop
vertex -88.5601401195058 -11.3025484529451 18.4886207580566
vertex -85.6101501195058 -11.3025484529451 5.0
vertex -85.6101501195058 -11.3025484529451 17.4886207580566
endloop
endfacet
facet normal 2.63240203034736e-016 -1.0 3.39933411322089e-017
outer loop
vertex -88.5601401195058 -11.3025484529451 18.4886207580566
vertex -85.6101501195058 -11.3025484529451 17.4886207580566
vertex -84.1518251195058 -11.3025484529451 18.4886207580566
endloop
endfacet
facet normal 0.0 0.0 1.0
outer loop
vertex -84.1518251195058 -11.3025484529451 18.4886207580566
vertex -88.5601401195058 -9.30254845294511 18.4886207580566
vertex -88.5601401195058 -11.3025484529451 18.4886207580566
endloop
endfacet
facet normal 0.000162841250180225 0.000752374764443092 0.999999703707427
outer loop
vertex -88.5601401195058 -9.30254845294511 18.4886207580566
vertex -84.1518251195058 -11.3025484529451 18.4886207580566
vertex -84.1518251195058 -9.3025484529451 18.4886207580566
endloop
endfacet
facet normal -2.37243537139892e-016 1.0 -6.74384934512871e-017
outer loop
vertex 16.3379504746718 7.69745154705491 5.0
vertex 88.4392561293878 7.69745154705493 0.0
vertex 16.3379504746718 7.69745154705491 0.0
endloop
endfacet
facet normal -2.37243537139892e-016 1.0 -6.74384934512871e-017
outer loop
vertex 88.4392561293878 7.69745154705493 0.0
vertex 16.3379504746718 7.69745154705491 5.0
vertex 85.4892661293878 7.69745154705493 5.0
endloop
endfacet
facet normal -2.37243537139892e-016 1.0 -6.74384934512871e-017
outer loop
vertex 88.4392561293878 7.69745154705493 0.0
vertex 85.4892661293878 7.69745154705493 5.0
vertex 88.4392561293878 7.69745154705493 5.0001106262207
endloop
endfacet
facet normal -3.75005408916433e-005 6.74295966429023e-017 0.999999999296855
outer loop
vertex 88.4392561293878 5.69745154705493 5.0001106262207
vertex 85.4892661293878 7.69745154705493 5.0
vertex 85.4892661293878 5.69745154705493 5.0
endloop
endfacet
facet normal -3.75005408916433e-005 6.74295966429023e-017 0.999999999296855
outer loop
vertex 85.4892661293878 7.69745154705493 5.0
vertex 88.4392561293878 5.69745154705493 5.0001106262207
vertex 88.4392561293878 7.69745154705493 5.0001106262207
endloop
endfacet
endsolid riftVicon18b
