solid riftVicon17c
facet normal 1.0 0.0 0.0
outer loop
vertex -16.6620495253282 4.6974515470549 0.0
vertex -16.6620495253282 -14.3025484529451 5.0
vertex -16.6620495253282 -14.3025484529451 0.0
endloop
endfacet
facet normal 1.0 0.0 0.0
outer loop
vertex -16.6620495253282 -14.3025484529451 5.0
vertex -16.6620495253282 4.6974515470549 0.0
vertex -16.6620495253282 4.6974515470549 5.0
endloop
endfacet
facet normal -1.0 0.0 0.0
outer loop
vertex -88.5601401195058 -12.3025484529451 18.4886207580566
vertex -88.5601401195058 -14.3025484529451 0.0
vertex -88.5601401195058 -14.3025484529451 18.4886207580566
endloop
endfacet
facet normal -1.0 0.0 0.0
outer loop
vertex -88.5601401195058 -14.3025484529451 0.0
vertex -88.5601401195058 -12.3025484529451 18.4886207580566
vertex -88.5601401195058 4.69745154705488 0.0
endloop
endfacet
facet normal -1.0 0.0 0.0
outer loop
vertex -88.5601401195058 4.69745154705488 0.0
vertex -88.5601401195058 -12.3025484529451 18.4886207580566
vertex -88.5601401195058 2.69745154705488 5.00009894371033
endloop
endfacet
facet normal -1.0 0.0 0.0
outer loop
vertex -88.5601401195058 2.69745154705488 5.00009894371033
vertex -88.5601401195058 -12.3025484529451 18.4886207580566
vertex -88.5601401195058 -2.30254845294512 18.4886207580566
endloop
endfacet
facet normal -1.0 0.0 0.0
outer loop
vertex -88.5601401195058 4.69745154705488 0.0
vertex -88.5601401195058 2.69745154705488 5.00009894371033
vertex -88.5601401195058 4.69745154705488 5.00009894371033
endloop
endfacet
facet normal -0.00091663635174008 0.00179412770442975 0.99999797043973
outer loop
vertex -83.1518251195058 -12.3025484529451 18.4886207580566
vertex -85.6101501195058 -2.30254845294512 18.4696063995361
vertex -88.5601401195058 -12.3025484529451 18.4886207580566
endloop
endfacet
facet normal -0.000325058708467951 0.000424797006147587 0.99999985694216
outer loop
vertex -85.6101501195058 -2.30254845294512 18.4696063995361
vertex -83.1518251195058 -12.3025484529451 18.4886207580566
vertex -83.1518251195058 -7.3025484529451 18.4886207580566
endloop
endfacet
facet normal 0.0 1.0 0.0
outer loop
vertex -85.6101501195058 -2.30254845294512 18.4696063995361
vertex -83.1518251195058 -2.30254845294512 17.4886207580566
vertex -85.6101501195058 -2.30254845294512 17.4886207580566
endloop
endfacet
facet normal 0.0 1.0 0.0
outer loop
vertex -83.1518251195058 -2.30254845294512 17.4886207580566
vertex -85.6101501195058 -2.30254845294512 18.4696063995361
vertex -83.1518251195058 -2.30254845294512 18.4886207580566
endloop
endfacet
facet normal 1.0 0.0 0.0
outer loop
vertex -85.6101501195058 2.69745154705488 5.0
vertex -85.6101501195058 -14.3025484529451 17.4886207580566
vertex -85.6101501195058 -14.3025484529451 5.0
endloop
endfacet
facet normal 1.0 0.0 0.0
outer loop
vertex -85.6101501195058 -14.3025484529451 17.4886207580566
vertex -85.6101501195058 2.69745154705488 5.0
vertex -85.6101501195058 -2.30254845294512 17.4886207580566
endloop
endfacet
facet normal 1.0 0.0 0.0
outer loop
vertex -85.6101501195058 -2.30254845294512 17.4886207580566
vertex -85.6101501195058 2.69745154705488 5.0
vertex -85.6101501195058 -2.30254845294512 18.4696063995361
endloop
endfacet
facet normal 0.0 0.0 -1.0
outer loop
vertex -83.1518251195058 -2.30254845294512 17.4886207580566
vertex -85.6101501195058 -14.3025484529451 17.4886207580566
vertex -85.6101501195058 -2.30254845294512 17.4886207580566
endloop
endfacet
facet normal 0.0 0.0 -1.0
outer loop
vertex -85.6101501195058 -14.3025484529451 17.4886207580566
vertex -83.1518251195058 -2.30254845294512 17.4886207580566
vertex -83.1518251195058 -14.3025484529451 17.4886207580566
endloop
endfacet
facet normal 0.0 0.0 1.0
outer loop
vertex -16.6620495253282 -14.3025484529451 5.0
vertex -85.6101501195058 2.69745154705488 5.0
vertex -85.6101501195058 -14.3025484529451 5.0
endloop
endfacet
facet normal 0.0 0.0 1.0
outer loop
vertex -85.6101501195058 2.69745154705488 5.0
vertex -16.6620495253282 -14.3025484529451 5.0
vertex -85.6101501195058 4.69745154705488 5.0
endloop
endfacet
facet normal 0.0 0.0 1.0
outer loop
vertex -85.6101501195058 4.69745154705488 5.0
vertex -16.6620495253282 -14.3025484529451 5.0
vertex -16.6620495253282 4.6974515470549 5.0
endloop
endfacet
facet normal 0.0 0.0 -1.0
outer loop
vertex -16.6620495253282 4.6974515470549 0.0
vertex -88.5601401195058 -14.3025484529451 0.0
vertex -88.5601401195058 4.69745154705488 0.0
endloop
endfacet
facet normal 0.0 0.0 -1.0
outer loop
vertex -88.5601401195058 -14.3025484529451 0.0
vertex -16.6620495253282 4.6974515470549 0.0
vertex -16.6620495253282 -14.3025484529451 0.0
endloop
endfacet
facet normal 1.0 0.0 0.0
outer loop
vertex -83.1518251195058 -2.30254845294512 17.4886207580566
vertex -83.1518251195058 -14.3025484529451 18.4886207580566
vertex -83.1518251195058 -14.3025484529451 17.4886207580566
endloop
endfacet
facet normal 1.0 0.0 0.0
outer loop
vertex -83.1518251195058 -14.3025484529451 18.4886207580566
vertex -83.1518251195058 -2.30254845294512 17.4886207580566
vertex -83.1518251195058 -12.3025484529451 18.4886207580566
endloop
endfacet
facet normal 1.0 0.0 0.0
outer loop
vertex -83.1518251195058 -12.3025484529451 18.4886207580566
vertex -83.1518251195058 -2.30254845294512 17.4886207580566
vertex -83.1518251195058 -7.3025484529451 18.4886207580566
endloop
endfacet
facet normal 1.0 0.0 0.0
outer loop
vertex -83.1518251195058 -7.3025484529451 18.4886207580566
vertex -83.1518251195058 -2.30254845294512 17.4886207580566
vertex -83.1518251195058 -2.30254845294512 18.4886207580566
endloop
endfacet
facet normal 0.00195463667053411 0.937512122464523 0.347947121884277
outer loop
vertex -88.5601401195058 -2.30254845294512 18.4886207580566
vertex -85.6101501195058 -2.30254845294512 18.4696063995361
vertex -85.6101501195058 2.69745154705488 5.0
endloop
endfacet
facet normal -0.0077344491783382 0.0 0.999970088700611
outer loop
vertex -83.1518251195058 -2.30254845294512 18.4886207580566
vertex -85.6101501195058 -2.30254845294512 18.4696063995361
vertex -83.1518251195058 -7.3025484529451 18.4886207580566
endloop
endfacet
facet normal 0.00195463667053411 0.937512122464523 0.347947121884277
outer loop
vertex -88.5601401195058 -2.30254845294512 18.4886207580566
vertex -85.6101501195058 2.69745154705488 5.0
vertex -88.5601401195058 2.69745154705488 5.00009894371033
endloop
endfacet
facet normal -0.000325058708467951 0.000424797006147587 0.99999985694216
outer loop
vertex -85.6101501195058 -2.30254845294512 18.4696063995361
vertex -88.5601401195058 -2.30254845294512 18.4886207580566
vertex -88.5601401195058 -12.3025484529451 18.4886207580566
endloop
endfacet
facet normal -1.0 0.0 0.0
outer loop
vertex 85.4892661293878 2.69745154705493 5.0
vertex 85.4892661293878 -2.30254845294507 17.4886207580566
vertex 85.4892661293878 -2.30254845294507 18.4886207580566
endloop
endfacet
facet normal -1.0 0.0 0.0
outer loop
vertex 85.4892661293878 -2.30254845294507 17.4886207580566
vertex 85.4892661293878 -14.3025484529451 5.0
vertex 85.4892661293878 -14.3025484529451 17.4886207580566
endloop
endfacet
facet normal -1.0 0.0 0.0
outer loop
vertex 85.4892661293878 -14.3025484529451 5.0
vertex 85.4892661293878 -2.30254845294507 17.4886207580566
vertex 85.4892661293878 2.69745154705493 5.0
endloop
endfacet
facet normal -1.0 0.0 0.0
outer loop
vertex 16.3379504746718 4.69745154705491 5.0
vertex 16.3379504746718 -14.3025484529451 0.0
vertex 16.3379504746718 -14.3025484529451 5.0
endloop
endfacet
facet normal -1.0 0.0 0.0
outer loop
vertex 16.3379504746718 -14.3025484529451 0.0
vertex 16.3379504746718 4.69745154705491 5.0
vertex 16.3379504746718 4.69745154705491 0.0
endloop
endfacet
facet normal -1.0 0.0 0.0
outer loop
vertex 83.0309411293878 -14.3025484529451 18.4886207580566
vertex 83.0309411293878 -2.30254845294507 17.4886207580566
vertex 83.0309411293878 -14.3025484529451 17.4886207580566
endloop
endfacet
facet normal -1.0 0.0 0.0
outer loop
vertex 83.0309411293878 -2.30254845294507 17.4886207580566
vertex 83.0309411293878 -14.3025484529451 18.4886207580566
vertex 83.0309411293878 -2.30254845294507 18.4886207580566
endloop
endfacet
facet normal -1.43388612294341e-016 1.0 -3.52495810318486e-016
outer loop
vertex 83.0309411293878 -2.30254845294507 18.4886207580566
vertex 85.4892661293878 -2.30254845294507 17.4886207580566
vertex 83.0309411293878 -2.30254845294507 17.4886207580566
endloop
endfacet
facet normal -1.43388612294341e-016 1.0 -3.52495810318486e-016
outer loop
vertex 85.4892661293878 -2.30254845294507 17.4886207580566
vertex 83.0309411293878 -2.30254845294507 18.4886207580566
vertex 85.4892661293878 -2.30254845294507 18.4886207580566
endloop
endfacet
facet normal 1.14710889835473e-015 2.49322876328193e-033 -1.0
outer loop
vertex 85.4892661293878 -2.30254845294507 17.4886207580566
vertex 83.0309411293878 -14.3025484529451 17.4886207580566
vertex 83.0309411293878 -2.30254845294507 17.4886207580566
endloop
endfacet
facet normal 1.14710889835473e-015 2.49322876328193e-033 -1.0
outer loop
vertex 83.0309411293878 -14.3025484529451 17.4886207580566
vertex 85.4892661293878 -2.30254845294507 17.4886207580566
vertex 85.4892661293878 -14.3025484529451 17.4886207580566
endloop
endfacet
facet normal 0.0 0.0 -1.0
outer loop
vertex 88.4392561293878 4.69745154705493 0.0
vertex 16.3379504746718 -14.3025484529451 0.0
vertex 16.3379504746718 4.69745154705491 0.0
endloop
endfacet
facet normal 0.0 0.0 -1.0
outer loop
vertex 16.3379504746718 -14.3025484529451 0.0
vertex 88.4392561293878 4.69745154705493 0.0
vertex 88.4392561293878 -14.3025484529451 0.0
endloop
endfacet
facet normal 7.52804696996353e-011 2.31357779256538e-010 1.0
outer loop
vertex 85.4892661293878 -14.3025484529451 5.0
vertex 16.3379504746718 4.69745154705491 5.0
vertex 16.3379504746718 -14.3025484529451 5.0
endloop
endfacet
facet normal 7.52804696996353e-011 2.31357779256538e-010 1.0
outer loop
vertex 16.3379504746718 4.69745154705491 5.0
vertex 85.4892661293878 -14.3025484529451 5.0
vertex 85.4892661293878 4.69745154705493 5.0
endloop
endfacet
facet normal 7.52804696996353e-011 2.31357779256538e-010 1.0
outer loop
vertex 85.4892661293878 4.69745154705493 5.0
vertex 85.4892661293878 -14.3025484529451 5.0
vertex 85.4892661293878 2.69745154705493 5.0
endloop
endfacet
facet normal 2.58588010257365e-016 -1.0 -5.01866209305174e-017
outer loop
vertex 16.3379504746718 -14.3025484529451 5.0
vertex 16.3379504746718 -14.3025484529451 0.0
vertex 85.4892661293878 -14.3025484529451 5.0
endloop
endfacet
facet normal 2.58588010257365e-016 -1.0 -5.01866209305174e-017
outer loop
vertex 88.4392561293878 -14.3025484529451 0.0
vertex 85.4892661293878 -14.3025484529451 5.0
vertex 16.3379504746718 -14.3025484529451 0.0
endloop
endfacet
facet normal 2.58588010257365e-016 -1.0 -5.01866209305174e-017
outer loop
vertex 85.4892661293878 -14.3025484529451 5.0
vertex 88.4392561293878 -14.3025484529451 0.0
vertex 88.4392561293878 -14.3025484529451 18.4886207580566
endloop
endfacet
facet normal 2.58588010257365e-016 -1.0 -5.01866209305174e-017
outer loop
vertex 85.4892661293878 -14.3025484529451 5.0
vertex 88.4392561293878 -14.3025484529451 18.4886207580566
vertex 85.4892661293878 -14.3025484529451 17.4886207580566
endloop
endfacet
facet normal 2.58588010257365e-016 -1.0 -5.01866209305174e-017
outer loop
vertex 85.4892661293878 -14.3025484529451 17.4886207580566
vertex 83.0309411293878 -14.3025484529451 18.4886207580566
vertex 83.0309411293878 -14.3025484529451 17.4886207580566
endloop
endfacet
facet normal 2.58588010257365e-016 -1.0 -5.01866209305174e-017
outer loop
vertex 83.0309411293878 -14.3025484529451 18.4886207580566
vertex 85.4892661293878 -14.3025484529451 17.4886207580566
vertex 88.4392561293878 -14.3025484529451 18.4886207580566
endloop
endfacet
facet normal 0.999999999982246 4.46229890830883e-006 3.94921110652236e-006
outer loop
vertex 88.4392561293878 4.69745154705493 0.0
vertex 88.4392561293878 -14.3025484529451 18.4886207580566
vertex 88.4392561293878 -14.3025484529451 0.0
endloop
endfacet
facet normal 0.999999999982246 4.46229890830883e-006 3.94921110652236e-006
outer loop
vertex 88.4392561293878 -14.3025484529451 18.4886207580566
vertex 88.4392561293878 4.69745154705493 0.0
vertex 88.4392561293878 2.69745154705493 5.0001106262207
endloop
endfacet
facet normal 0.999999999982246 4.46229890830883e-006 3.94921110652236e-006
outer loop
vertex 88.4392561293878 -14.3025484529451 18.4886207580566
vertex 88.4392561293878 2.69745154705493 5.0001106262207
vertex 88.4392561293878 -2.30254845294507 18.4886207580566
endloop
endfacet
facet normal 0.999999999982246 4.46229890830883e-006 3.94921110652236e-006
outer loop
vertex 88.4392561293878 2.69745154705493 5.0001106262207
vertex 88.4392561293878 4.69745154705493 0.0
vertex 88.4392561293878 4.69745154705493 5.0001106262207
endloop
endfacet
facet normal 0.0 0.0 1.0
outer loop
vertex 88.4392561293878 -14.3025484529451 18.4886207580566
vertex 83.0309411293878 -2.30254845294507 18.4886207580566
vertex 83.0309411293878 -14.3025484529451 18.4886207580566
endloop
endfacet
facet normal 0.0 0.0 1.0
outer loop
vertex 83.0309411293878 -2.30254845294507 18.4886207580566
vertex 88.4392561293878 -14.3025484529451 18.4886207580566
vertex 85.4892661293878 -2.30254845294507 18.4886207580566
endloop
endfacet
facet normal 0.0 0.0 1.0
outer loop
vertex 85.4892661293878 -2.30254845294507 18.4886207580566
vertex 88.4392561293878 -14.3025484529451 18.4886207580566
vertex 88.4392561293878 -2.30254845294507 18.4886207580566
endloop
endfacet
facet normal -6.22339739681527e-006 0.937652836538156 0.347573241336584
outer loop
vertex 85.4892661293878 -2.30254845294507 18.4886207580566
vertex 88.4392561293878 2.69745154705493 5.0001106262207
vertex 85.4892661293878 2.69745154705493 5.0
endloop
endfacet
facet normal -6.22339739681527e-006 0.937652836538156 0.347573241336584
outer loop
vertex 88.4392561293878 2.69745154705493 5.0001106262207
vertex 85.4892661293878 -2.30254845294507 18.4886207580566
vertex 88.4392561293878 -2.30254845294507 18.4886207580566
endloop
endfacet
facet normal -2.60988748066879e-016 1.0 3.56712136752289e-017
outer loop
vertex -16.6620495253282 4.6974515470549 5.0
vertex -16.6620495253282 4.6974515470549 0.0
vertex -85.6101501195058 4.69745154705488 5.0
endloop
endfacet
facet normal -2.60988748066879e-016 1.0 3.56712136752289e-017
outer loop
vertex -88.5601401195058 4.69745154705488 5.00009894371033
vertex -16.6620495253282 4.6974515470549 0.0
vertex -88.5601401195058 4.69745154705488 0.0
endloop
endfacet
facet normal -2.60988748066879e-016 1.0 3.56712136752289e-017
outer loop
vertex -16.6620495253282 4.6974515470549 0.0
vertex -88.5601401195058 4.69745154705488 5.00009894371033
vertex -85.6101501195058 4.69745154705488 5.0
endloop
endfacet
facet normal 3.35403544659156e-005 -3.56624600000429e-017 0.999999999437522
outer loop
vertex -85.6101501195058 2.69745154705488 5.0
vertex -88.5601401195058 4.69745154705488 5.00009894371033
vertex -88.5601401195058 2.69745154705488 5.00009894371033
endloop
endfacet
facet normal 3.35403544659156e-005 -3.56624600000429e-017 0.999999999437522
outer loop
vertex -88.5601401195058 4.69745154705488 5.00009894371033
vertex -85.6101501195058 2.69745154705488 5.0
vertex -85.6101501195058 4.69745154705488 5.0
endloop
endfacet
facet normal 2.42709232382952e-016 -1.0 2.60582843158415e-017
outer loop
vertex -83.1518251195058 -14.3025484529451 18.4886207580566
vertex -85.6101501195058 -14.3025484529451 17.4886207580566
vertex -83.1518251195058 -14.3025484529451 17.4886207580566
endloop
endfacet
facet normal 2.42709232382952e-016 -1.0 2.60582843158415e-017
outer loop
vertex -16.6620495253282 -14.3025484529451 5.0
vertex -88.5601401195058 -14.3025484529451 0.0
vertex -16.6620495253282 -14.3025484529451 0.0
endloop
endfacet
facet normal 2.42709232382952e-016 -1.0 2.60582843158415e-017
outer loop
vertex -88.5601401195058 -14.3025484529451 0.0
vertex -16.6620495253282 -14.3025484529451 5.0
vertex -85.6101501195058 -14.3025484529451 5.0
endloop
endfacet
facet normal 2.42709232382952e-016 -1.0 2.60582843158415e-017
outer loop
vertex -88.5601401195058 -14.3025484529451 0.0
vertex -85.6101501195058 -14.3025484529451 5.0
vertex -88.5601401195058 -14.3025484529451 18.4886207580566
endloop
endfacet
facet normal 2.42709232382952e-016 -1.0 2.60582843158415e-017
outer loop
vertex -88.5601401195058 -14.3025484529451 18.4886207580566
vertex -85.6101501195058 -14.3025484529451 5.0
vertex -85.6101501195058 -14.3025484529451 17.4886207580566
endloop
endfacet
facet normal 2.42709232382952e-016 -1.0 2.60582843158415e-017
outer loop
vertex -88.5601401195058 -14.3025484529451 18.4886207580566
vertex -85.6101501195058 -14.3025484529451 17.4886207580566
vertex -83.1518251195058 -14.3025484529451 18.4886207580566
endloop
endfacet
facet normal -1.35871317338906e-032 2.60582843158415e-017 1.0
outer loop
vertex -83.1518251195058 -14.3025484529451 18.4886207580566
vertex -88.5601401195058 -12.3025484529451 18.4886207580566
vertex -88.5601401195058 -14.3025484529451 18.4886207580566
endloop
endfacet
facet normal -1.35871317338906e-032 2.60582843158415e-017 1.0
outer loop
vertex -88.5601401195058 -12.3025484529451 18.4886207580566
vertex -83.1518251195058 -14.3025484529451 18.4886207580566
vertex -83.1518251195058 -12.3025484529451 18.4886207580566
endloop
endfacet
facet normal -2.37243537139892e-016 1.0 -6.74384934512871e-017
outer loop
vertex 16.3379504746718 4.69745154705491 5.0
vertex 88.4392561293878 4.69745154705493 0.0
vertex 16.3379504746718 4.69745154705491 0.0
endloop
endfacet
facet normal -2.37243537139892e-016 1.0 -6.74384934512871e-017
outer loop
vertex 88.4392561293878 4.69745154705493 0.0
vertex 16.3379504746718 4.69745154705491 5.0
vertex 85.4892661293878 4.69745154705493 5.0
endloop
endfacet
facet normal -2.37243537139892e-016 1.0 -6.74384934512871e-017
outer loop
vertex 88.4392561293878 4.69745154705493 0.0
vertex 85.4892661293878 4.69745154705493 5.0
vertex 88.4392561293878 4.69745154705493 5.0001106262207
endloop
endfacet
facet normal -3.75005408916433e-005 6.74295966429023e-017 0.999999999296855
outer loop
vertex 88.4392561293878 2.69745154705493 5.0001106262207
vertex 85.4892661293878 4.69745154705493 5.0
vertex 85.4892661293878 2.69745154705493 5.0
endloop
endfacet
facet normal -3.75005408916433e-005 6.74295966429023e-017 0.999999999296855
outer loop
vertex 85.4892661293878 4.69745154705493 5.0
vertex 88.4392561293878 2.69745154705493 5.0001106262207
vertex 88.4392561293878 4.69745154705493 5.0001106262207
endloop
endfacet
endsolid riftVicon17c
